<svg xmlns="http://www.w3.org/2000/svg" viewBox="0 0 48 48"><title>5. Coupe car</title><g id="_5._Coupe_car" data-name="5. Coupe car"><path d="M36.71,29.29a1,1,0,0,0-1.42,1.42A1,1,0,0,0,36.71,29.29Z"/><path d="M11.29,29.29A1,1,0,0,0,12,31a1,1,0,0,0,1-.8A1,1,0,0,0,11.29,29.29Z"/><path d="M25,23H23a1,1,0,0,0,0,2h2A1,1,0,0,0,25,23Z"/><path d="M43.82,20.46l-8.38-1.4c-4.8-4.11-7.21-7.25-17.69-5.75-3.31.47-4.72.54-6.81,1.68C2.76,19.45,1.37,19.73.55,22.18-.1,24.12,0,23.64,0,27a4,4,0,0,0,4,4H7.1a5,5,0,0,0,9.8,0H31.1a5,5,0,0,0,9.8,0H44a4,4,0,0,0,4-4V25.39A5,5,0,0,0,43.82,20.46ZM23.56,15c4.27,0,6.61,2.18,8.74,4H13.87l2.29-3.44A35.4,35.4,0,0,1,23.56,15ZM2.39,23c.72,0,1-.05,1.32.31A1,1,0,0,1,3,25H2A4.2,4.2,0,0,1,2.39,23ZM12,33a3,3,0,1,1,3-3A3,3,0,0,1,12,33Zm24,0a3,3,0,1,1,3-3A3,3,0,0,1,36,33Zm8-4H40.9a5,5,0,0,0-9.8,0H16.9a5,5,0,0,0-9.8,0H4a2,2,0,0,1-2-2H3a3,3,0,0,0,.84-5.87c.11-.05,8.31-4.63,9.57-5l-1.2,1.8A2,2,0,0,0,13.87,21c25.26,0,18.82-.37,29.62,1.43A3,3,0,0,1,46,25H45a1,1,0,0,0,0,2h1A2,2,0,0,1,44,29Z"/></g></svg>