<svg xmlns="http://www.w3.org/2000/svg" viewBox="0 0 48 48"><title>4. Liftback car</title><g id="_4._Liftback_car" data-name="4. Liftback car"><path d="M36.38,29.08A1,1,0,1,0,36,31,1,1,0,0,0,36.38,29.08Z"/><path d="M11.62,29.08A1,1,0,1,0,13,30,1,1,0,0,0,11.62,29.08Z"/><path d="M27,23H25a1,1,0,0,0,0,2h2A1,1,0,0,0,27,23Z"/><path d="M43.82,20.46l-8.38-1.4L29.77,14.2C27.92,12.62,27.09,13,16,13c-2.65,0-5.06-.22-7.78,1.9-4.73,3.67-6.84,4.8-8,8.17C-.09,24.11,0,24.77,0,27a4,4,0,0,0,4,4H7.1a5,5,0,0,0,9.8,0H31.1a5,5,0,0,0,9.8,0H44a4,4,0,0,0,4-4V25.39A5,5,0,0,0,43.82,20.46ZM32.3,19H24V15C28.37,15,27,14.47,32.3,19ZM22,15v4H13.87l2.67-4ZM12,33a3,3,0,1,1,3-3A3,3,0,0,1,12,33Zm24,0a3,3,0,1,1,3-3A3,3,0,0,1,36,33Zm8-4H40.9a5,5,0,0,0-9.8,0H16.9a5,5,0,0,0-9.8,0H4a2,2,0,0,1-2-2H3a1,1,0,0,0,0-2H2a3.55,3.55,0,0,1,.15-1.3c.86-2.57,2-3.1,7.3-7.23A7.13,7.13,0,0,1,14.13,15c-1.79,2.69-2.76,3.56-2,4.94A2,2,0,0,0,13.87,21c25.26,0,18.82-.37,29.62,1.43A3,3,0,0,1,46,25H45a1,1,0,0,0,0,2h1A2,2,0,0,1,44,29Z"/></g></svg>