<svg xmlns="http://www.w3.org/2000/svg" viewBox="0 0 48 48"><title>10. Stretch car</title><g id="_10._Stretch_car" data-name="10. Stretch car"><path d="M10.71,28.29a1,1,0,0,0-1.63,1.09C9.69,30.84,11.78,29.48,10.71,28.29Z"/><path d="M38.71,28.29A1,1,0,0,0,37,29.2a1,1,0,1,0,1.69-.91Z"/><path d="M44.33,20.77l-9-.74c-8.52-6.09-5.1-5-22.92-5-2.49,0-3.35,1.78-6,5.08l-3.12.52A4,4,0,0,0,0,24.54V27a3,3,0,0,0,3,3H6.14a4,4,0,0,0,7.72,0H34.14a4,4,0,0,0,7.72,0H45a3,3,0,0,0,3-3V24.76A4,4,0,0,0,44.33,20.77ZM31.88,20H25V17C28.17,17,29,17.94,31.88,20ZM19,20V17h4v3Zm-4.32-3H17v3H13.48ZM10,31a2,2,0,1,1,2-2A2,2,0,0,1,10,31Zm28,0a2,2,0,1,1,2-2A2,2,0,0,1,38,31Zm7-3H41.86a4,4,0,0,0-7.72,0H13.86a4,4,0,0,0-7.72,0H3a1,1,0,0,1-1-1V24.54a2,2,0,0,1,1.67-2C7.92,21.86,7,22,7.31,21.93c.43-.14.31-.1,3.57-4.18A2,2,0,0,1,12.52,17c-.84,2.12-1.45,3-.7,4.12a2,2,0,0,0,1.66.88c25.77,0,19.09-.2,30.69.77A2,2,0,0,1,45.84,24H45a1,1,0,0,0,0,2h1v1A1,1,0,0,1,45,28Z"/></g></svg>