<svg xmlns="http://www.w3.org/2000/svg" viewBox="0 0 48 48"><title>3. Wagon car</title><g id="_3._Wagon_car" data-name="3. Wagon car"><path d="M35.29,30.29a1,1,0,0,0,1.42,1.42A1,1,0,0,0,35.29,30.29Z"/><path d="M12.71,30.29a1,1,0,0,0-1.63.33,1,1,0,0,0,.54,1.3A1,1,0,0,0,12.71,30.29Z"/><path d="M27,23H25a1,1,0,0,0,0,2h2A1,1,0,0,0,27,23Z"/><path d="M18,23H16a1,1,0,0,0,0,2h2A1,1,0,0,0,18,23Z"/><path d="M43.79,19.07c-.5-.1-.47-.07-8.38-.07-4.76-4.76-6.2-7-9.9-7H6.74c-2.5,0-3.34,1.79-4.24,3.35C-.26,20.19,0,24.05,0,28a4,4,0,0,0,4,4H7.1a5,5,0,0,0,9.8,0H31.1a5,5,0,0,0,9.8,0H45a3,3,0,0,0,3-3V24A5,5,0,0,0,43.79,19.07Zm-.17,2A3,3,0,0,1,45.82,23H44A1,1,0,0,1,43.62,21.08ZM32.59,19H24V14C28.24,14,27.79,14.21,32.59,19ZM15,19V14h7v5ZM8.52,19l2.14-5H13v5ZM2.26,21.86h.67a1.07,1.07,0,0,1,0,2.14H2A17.07,17.07,0,0,1,2.26,21.86ZM12,34a3,3,0,1,1,3-3A3,3,0,0,1,12,34Zm24,0a3,3,0,1,1,3-3A3,3,0,0,1,36,34Zm9-4H40.9a5,5,0,0,0-9.8,0H16.9a5,5,0,0,0-9.8,0H4a2,2,0,0,1-2-2V26h.93c4,0,4.19-6.14-.19-6.14A20.53,20.53,0,0,1,5,15c.72-1.25,2-1,3.48-1-1.71,4-2.42,4.89-1.64,6.09A2,2,0,0,0,8.52,21H41.18A3,3,0,0,0,44,25h2v2H45a1,1,0,0,0,0,2h1A1,1,0,0,1,45,30Z"/></g></svg>