<svg id="All_work" data-name="All  work" xmlns="http://www.w3.org/2000/svg" viewBox="0 0 864.15 578.59"><defs><style>.cls-1{font-size:34.3px;letter-spacing:0.05em;}.cls-1,.cls-10{fill:#12100b;font-family:Nunito-ExtraLight, Nunito;font-weight:200;}.cls-2{letter-spacing:0.03em;}.cls-3{letter-spacing:0.03em;}.cls-4{letter-spacing:0.05em;}.cls-5{letter-spacing:0.01em;}.cls-6{letter-spacing:0.05em;}.cls-7{letter-spacing:0.02em;}.cls-8{letter-spacing:0.05em;}.cls-9{letter-spacing:0.05em;}.cls-10{font-size:116.71px;letter-spacing:0.2em;}.cls-11{letter-spacing:0.2em;}.cls-12{letter-spacing:0.09em;}.cls-13{fill:#43bde9;}</style></defs><text id="slogan" class="cls-1" transform="translate(108.06 569.12)">DIS<tspan class="cls-2" x="58.62" y="0">C</tspan><tspan class="cls-3" x="82.53" y="0">O</tspan><tspan x="109.5" y="0">VER BE</tspan><tspan class="cls-2" x="235.49" y="0">F</tspan><tspan class="cls-4" x="254.91" y="0">ORE </tspan><tspan class="cls-5" x="337.96" y="0">Y</tspan><tspan class="cls-6" x="357.92" y="0">OU </tspan><tspan class="cls-7" x="421.97" y="0">L</tspan><tspan class="cls-8" x="440.9" y="0">A</tspan><tspan class="cls-9" x="467.01" y="0">UNCH</tspan></text><text id="name" class="cls-10" transform="translate(0 496.39)">S<tspan class="cls-11" x="93.37" y="0">E</tspan><tspan x="182.66" y="0">GMENT</tspan><tspan class="cls-12" x="702.03" y="0">L</tspan><tspan x="773.46" y="0">Y</tspan></text><path class="cls-13" d="M1539.85,584.52l-148.51-86.19a56.72,56.72,0,0,0-28.67-7.68l-169.83.49a56.77,56.77,0,0,0-29.85,8.57l-95.85,59.63a53.58,53.58,0,0,1-21.72,7.67L838.26,592.48A33.89,33.89,0,0,0,813.12,609L789.2,650a46.42,46.42,0,0,0-2.85,41l25.12,61.15a33.75,33.75,0,0,0,31.21,20.93h7.06a19.62,19.62,0,0,1,17.39,10.37A78.71,78.71,0,0,0,1004,787.87a31.3,31.3,0,0,1,26.74-14.74H1300a31.32,31.32,0,0,1,26.75,14.74,78.69,78.69,0,0,0,135.83-2.56,23.53,23.53,0,0,1,20.44-12.18h9.77a32.56,32.56,0,0,0,28-16l29.58-49.87a48,48,0,0,0,6.72-24.5V614.51A34.66,34.66,0,0,0,1539.85,584.52ZM991.7,752.8a55.23,55.23,0,1,1-60.9-60.9A55.33,55.33,0,0,1,991.7,752.8Zm457.14,0a55.23,55.23,0,1,1-60.9-60.9A55.32,55.32,0,0,1,1448.84,752.8Zm84.75-78a53.77,53.77,0,0,1-7.53,27.45l-21.94,37a21.2,21.2,0,0,1-18.23,10.38h-.13a14.18,14.18,0,0,1-14.07-12.74,77.6,77.6,0,0,0-1.54-10,78.77,78.77,0,0,0-152.57.6c-.45,1.77-.83,3.66-1.15,5.64a19.59,19.59,0,0,1-19.35,16.48H1196.54a12.35,12.35,0,0,1-12.35-12.35,23.08,23.08,0,0,0-23.09-23.08H1107c-13.77,0-26.79,5.46-37.1,14.59a35.09,35.09,0,1,1,.06-52.52,56.68,56.68,0,0,0,37.61,14.53h112.25c13.77,0,26.79,5.46,37.1,14.58a35.1,35.1,0,1,0-.48-52.13,54.09,54.09,0,0,1-36.61,14.15h-12.51a23.08,23.08,0,0,1-23.09-23.08v-.61a23.09,23.09,0,0,0-23.09-23.09h-11.93a56.71,56.71,0,0,0-37.62,14.54,35.08,35.08,0,1,1,0-52.52c10.31,9.12,23.33,14.59,37.1,14.59h111.64c13.76,0,26.79,5.47,37.1,14.59a35.09,35.09,0,1,0-1-51.65c-9.45,9-22.3,13.67-35.38,13.67h-41.18a35.58,35.58,0,0,1-35.58-35.59h0a23.59,23.59,0,0,1,23.52-23.59l153.56-.44a38.62,38.62,0,0,1,19.51,5.22l142.1,82.47a21.5,21.5,0,0,1,10.71,18.59Zm-251.2-7.17a11.71,11.71,0,1,1-13.77,13.77A11.68,11.68,0,0,1,1282.39,667.59ZM1322.84,574a11.7,11.7,0,1,1-13.77,13.77A11.68,11.68,0,0,1,1322.84,574Z" transform="translate(-769.88 -490.65)"/><path class="cls-13" d="M1092.58,598.15a11.59,11.59,0,0,0-15,15,11.71,11.71,0,0,0,6.46,6.46,11.57,11.57,0,0,0,8.59-21.49Z" transform="translate(-769.88 -490.65)"/><path class="cls-13" d="M1050.93,691.71a11.58,11.58,0,0,0-15,15,11.71,11.71,0,0,0,6.46,6.46,11.57,11.57,0,1,0,8.57-21.5Z" transform="translate(-769.88 -490.65)"/></svg>