<svg xmlns="http://www.w3.org/2000/svg" viewBox="0 0 48 48"><title>2. Hatchback car</title><g id="_2._Hatchback_car" data-name="2. Hatchback car"><path d="M48,25.76a7.28,7.28,0,0,0-3.5-4.63c-1.48-.83-1.79-.75-9-2.06-4.88-4.88-6.28-7.07-10-7.07H6.74a4,4,0,0,0-3.47,2C-.13,20,0,22,0,28a4,4,0,0,0,4,4H7.1a5,5,0,0,0,9.8,0H31.1a5,5,0,0,0,9.8,0H45a3,3,0,0,0,3-3A25.16,25.16,0,0,0,48,25.76ZM43.72,23a5,5,0,0,1,1.81,2H44A1,1,0,0,1,43.72,23ZM32.59,19H24V14C28.22,14,27.76,14.18,32.59,19ZM15,19V14h7v5Zm-3.5,0c-2.57-3.43-2.53-2.67-1-5H13v5ZM2.26,21.86h.67a1.07,1.07,0,0,1,0,2.14H2A17.07,17.07,0,0,1,2.26,21.86ZM12,34a3,3,0,1,1,3-3A3,3,0,0,1,12,34Zm24,0a3,3,0,1,1,3-3A3,3,0,0,1,36,34Zm9-4H40.9a5,5,0,0,0-9.8,0H16.9a5,5,0,0,0-9.8,0H4a2,2,0,0,1-2-2V26h.93c4,0,4.19-6.14-.19-6.14A20.53,20.53,0,0,1,5,15c.69-1.2,1.83-1,3.13-1a3,3,0,0,0-.08,3.73C10.32,20.76,10.33,21,11,21c27.83,0,21.68-.4,30.6,1.22A3,3,0,0,0,44,27h2v2A1,1,0,0,1,45,30Z"/><path d="M36.92,30.62a1,1,0,1,0-1.75.94A1,1,0,0,0,36.92,30.62Z"/><path d="M12.71,30.29a1,1,0,1,0,0,1.42A1,1,0,0,0,12.71,30.29Z"/><path d="M27,23H25a1,1,0,0,0,0,2h2A1,1,0,0,0,27,23Z"/><path d="M18,23H16a1,1,0,0,0,0,2h2A1,1,0,0,0,18,23Z"/></g></svg>