<svg xmlns="http://www.w3.org/2000/svg" viewBox="0 0 48 48"><title>1. Sedan сar</title><g id="_1._Sedan_сar" data-name="1. Sedan сar"><path d="M48,25.76a7.25,7.25,0,0,0-3.5-4.63c-1.45-.83-1.91-.77-9-2.06C27.1,10.68,30.55,12,13.74,12a4,4,0,0,0-3.47,2c-3.53,6.19-2,4.88-7.37,6.41A4,4,0,0,0,0,24.26V28a4,4,0,0,0,4,4H7.1a5,5,0,0,0,9.8,0H31.1a5,5,0,0,0,9.8,0H45a3,3,0,0,0,3-3A25.16,25.16,0,0,0,48,25.76ZM43.72,23a5,5,0,0,1,1.81,2H44A1,1,0,0,1,43.72,23ZM32.59,19H24V14C28.13,14,27.63,14,32.59,19ZM22,14v5H14.52l2.14-5ZM3.45,22.34,4,22.19A2,2,0,0,1,2,24,2,2,0,0,1,3.45,22.34ZM12,34a3,3,0,1,1,3-3A3,3,0,0,1,12,34Zm24,0a3,3,0,1,1,3-3A3,3,0,0,1,36,34Zm9-4H40.9a5,5,0,0,0-9.8,0H16.9a5,5,0,0,0-9.8,0H4a2,2,0,0,1-2-2V26a4,4,0,0,0,4-4.38c3.16-.9,2.66-.75,6-6.62a2,2,0,0,1,1.73-1h.74c-1.75,4.1-2.42,4.91-1.63,6.1a2,2,0,0,0,1.67.9c24.05,0,18.16-.41,27.08,1.22A3,3,0,0,0,44,27h2v2A1,1,0,0,1,45,30Z"/><path d="M35.29,30.29A1,1,0,1,0,37,31,1,1,0,0,0,35.29,30.29Z"/><path d="M11.29,30.29a1,1,0,1,0,1.42,0A1,1,0,0,0,11.29,30.29Z"/><path d="M27,23H25a1,1,0,0,0,0,2h2A1,1,0,0,0,27,23Z"/></g></svg>