<svg xmlns="http://www.w3.org/2000/svg" viewBox="0 0 48 48"><title>11. SUV car</title><g id="_11._SUV_car" data-name="11. SUV car"><path d="M48,25.76a7.26,7.26,0,0,0-3.5-4.63c-1.49-.83-1.73-.74-9-2.06-4.88-4.88-6.28-7.07-10-7.07H3a1,1,0,0,0,0,2h.28C.36,19,0,21.21,0,27a5,5,0,0,0,5,5H7.1a5,5,0,0,0,9.8,0H31.1a5,5,0,0,0,9.8,0H45a3,3,0,0,0,3-3A25.16,25.16,0,0,0,48,25.76ZM43.72,23a5,5,0,0,1,1.81,2H44A1,1,0,0,1,43.72,23ZM32.59,19H23.75l-1.42-5C28.31,14,27.22,13.63,32.59,19ZM10.53,14h2.14l-1.35,4.75C9,15.6,9,16.3,10.53,14Zm4.22,0h5.5l1.42,5H13.33ZM2.26,21.86h.67a1.07,1.07,0,0,1,0,2.14H2A17.07,17.07,0,0,1,2.26,21.86ZM12,34a3,3,0,1,1,3-3A3,3,0,0,1,12,34Zm24,0a3,3,0,1,1,3-3A3,3,0,0,1,36,34Zm9-4H40.9a5,5,0,0,0-9.8,0H16.9a5,5,0,0,0-9.8,0H5a3,3,0,0,1-3-3V26h.93c4,0,4.19-6.14-.19-6.14A20.53,20.53,0,0,1,5,15c.66-1.16,1.85-1,3.13-1a3,3,0,0,0-.08,3.73C10.8,21.4,10.11,21,12,21c27.07,0,20.76-.39,29.6,1.22A3,3,0,0,0,44,27h2v2A1,1,0,0,1,45,30Z"/><path d="M35.29,30.29a1,1,0,0,0,1.42,1.42A1,1,0,0,0,35.29,30.29Z"/><path d="M11.29,30.29a1,1,0,1,0,1.42,0A1,1,0,0,0,11.29,30.29Z"/><path d="M27,23H25a1,1,0,0,0,0,2h2A1,1,0,0,0,27,23Z"/><path d="M16,23H14a1,1,0,0,0,0,2h2A1,1,0,0,0,16,23Z"/></g></svg>