<?xml version="1.0" standalone="no"?>
<!DOCTYPE svg PUBLIC "-//W3C//DTD SVG 20010904//EN"
 "http://www.w3.org/TR/2001/REC-SVG-20010904/DTD/svg10.dtd">
<svg version="1.0" xmlns="http://www.w3.org/2000/svg"
 width="596.000000pt" height="596.000000pt" viewBox="0 0 596.000000 596.000000"
 preserveAspectRatio="xMidYMid meet">
<metadata>
Created by potrace 1.14, written by Peter Selinger 2001-2017
</metadata>
<g transform="translate(0.000000,596.000000) scale(0.100000,-0.100000)"
fill="#000000" stroke="none">
<path d="M3107 5093 c-1 -1 -15 -3 -32 -6 -16 -2 -41 -8 -55 -14 -14 -6 -29
-12 -35 -14 -19 -6 -48 -34 -202 -185 -84 -83 -153 -148 -153 -146 0 3 -13
-12 -30 -33 -16 -21 -30 -34 -30 -29 -1 5 -7 -2 -15 -16 -8 -14 -14 -22 -15
-19 0 10 -220 -212 -220 -224 0 -5 -3 -8 -6 -4 -3 3 -37 -25 -75 -64 -37 -38
-72 -69 -77 -69 -6 0 -12 -7 -16 -15 -3 -8 -12 -15 -21 -15 -8 0 -15 -5 -15
-12 0 -6 -3 -9 -6 -5 -4 3 -19 0 -34 -8 -15 -8 -30 -12 -32 -9 -3 2 -18 0 -33
-6 -16 -6 -43 -11 -62 -12 -19 -1 -36 -5 -39 -9 -2 -4 -13 -6 -24 -4 -11 2
-20 -2 -20 -8 0 -7 -4 -6 -10 3 -5 8 -10 10 -10 4 0 -6 -6 -11 -12 -12 -31 -3
-85 -12 -108 -18 -14 -3 -34 -7 -45 -9 -11 -2 -20 -4 -20 -5 0 -1 -9 -3 -20
-5 -47 -7 -103 -17 -143 -26 -24 -5 -48 -7 -53 -4 -5 4 -9 2 -9 -3 0 -5 -6 -9
-12 -10 -31 -3 -83 -11 -83 -12 0 -1 -9 -3 -20 -5 -91 -18 -121 -23 -127 -19
-5 3 -8 1 -8 -3 0 -5 -10 -10 -22 -11 -13 -1 -57 -9 -98 -17 -41 -9 -88 -18
-105 -20 -37 -6 -70 -13 -70 -15 0 -1 -11 -3 -25 -5 -37 -5 -69 -13 -82 -21
-7 -5 -8 -3 -3 5 6 10 3 11 -11 3 -11 -5 -35 -12 -54 -16 -19 -3 -46 -8 -60
-11 -45 -9 -95 -18 -107 -18 -7 0 -13 -4 -13 -9 0 -5 -12 -6 -27 -3 -19 3 -33
-2 -46 -16 -10 -10 -22 -17 -28 -14 -5 4 -9 1 -9 -5 0 -6 -13 -24 -29 -39 -29
-28 -72 -108 -78 -145 -2 -11 -8 -25 -14 -33 -6 -7 -8 -13 -4 -13 4 0 3 -6 -2
-12 -6 -7 -18 -38 -28 -68 -10 -30 -25 -71 -33 -90 -9 -19 -15 -41 -13 -47 1
-7 -4 -13 -10 -13 -7 0 -9 -3 -6 -6 3 -4 1 -16 -5 -28 -7 -11 -13 -30 -15 -40
-2 -11 -8 -25 -14 -33 -6 -7 -8 -13 -4 -13 4 0 2 -7 -5 -15 -7 -8 -9 -15 -5
-15 4 0 2 -7 -5 -15 -7 -8 -9 -15 -6 -15 4 0 1 -10 -6 -22 -7 -13 -11 -26 -10
-30 1 -4 -2 -18 -8 -32 -13 -34 -21 -124 -20 -228 0 -10 0 -24 0 -30 0 -28 13
-102 25 -138 3 -10 7 -27 9 -37 2 -10 16 -65 31 -123 15 -57 28 -109 30 -115
1 -5 5 -18 9 -27 4 -9 5 -22 1 -28 -3 -5 -1 -10 5 -10 6 0 10 -6 9 -12 -1 -7
0 -20 3 -28 25 -73 26 -80 15 -73 -9 5 -9 3 0 -8 6 -8 12 -18 13 -24 2 -5 4
-14 5 -20 21 -72 48 -184 49 -197 0 -10 4 -18 8 -18 4 0 7 -3 7 -7 -3 -17 14
-73 22 -73 5 0 9 -7 9 -15 0 -17 7 -27 61 -86 20 -21 41 -39 47 -39 5 0 22 -7
38 -15 20 -10 30 -11 35 -4 4 8 8 7 12 -2 3 -8 6 -9 6 -3 1 8 12 9 35 4 19 -4
37 -5 40 -2 4 3 6 0 6 -6 0 -7 6 -12 13 -12 20 0 79 -79 83 -110 3 -26 9 -45
17 -51 4 -3 9 -15 12 -27 5 -26 57 -125 67 -130 5 -2 8 -10 8 -18 0 -8 5 -14
10 -14 6 0 10 -5 10 -10 0 -27 160 -180 188 -180 6 0 12 -5 12 -11 0 -5 5 -7
10 -4 6 3 10 2 10 -3 0 -5 6 -9 13 -9 6 -1 32 -7 57 -15 62 -19 187 -14 224
10 6 3 16 7 22 8 38 6 194 132 194 157 0 4 4 6 9 3 5 -3 14 8 21 24 7 17 16
30 19 30 8 0 39 61 37 71 0 3 7 13 17 23 9 10 15 21 12 26 -3 4 2 11 10 14 8
3 14 9 13 13 -5 13 44 123 54 123 5 0 8 3 6 8 -2 4 9 19 24 34 15 15 28 24 28
20 0 -4 6 0 13 8 16 20 39 25 120 25 37 0 67 3 67 7 0 4 14 3 30 -2 17 -5 30
-5 30 0 0 5 6 7 13 5 22 -9 107 -11 107 -3 0 4 11 3 25 -2 15 -6 26 -6 30 1 4
5 11 6 17 3 17 -10 69 -10 75 0 3 4 9 2 14 -5 8 -12 10 -12 18 0 7 11 9 11 14
0 4 -9 6 -10 6 -2 1 7 7 10 14 8 21 -9 107 -11 107 -4 0 4 13 4 30 -1 19 -5
32 -5 36 2 4 6 10 5 15 -3 8 -12 10 -12 18 0 7 11 9 11 14 0 4 -9 6 -10 6 -2
1 7 7 10 14 8 21 -9 107 -11 107 -3 0 4 6 5 13 3 21 -9 107 -11 107 -3 0 4 6
5 13 3 21 -9 107 -11 107 -3 0 4 6 5 13 3 21 -9 107 -11 107 -3 0 4 6 5 13 3
27 -10 88 -12 93 -3 4 6 10 5 15 -3 8 -12 10 -12 18 0 7 11 9 11 14 0 4 -9 6
-10 6 -2 1 7 7 10 14 8 21 -9 107 -11 107 -3 0 4 6 5 13 3 21 -9 107 -11 107
-3 0 4 6 5 13 3 21 -9 107 -11 107 -3 0 4 6 5 13 3 23 -9 107 -11 107 -2 0 4
4 5 10 2 5 -3 50 -7 100 -8 49 -1 90 -5 90 -9 0 -4 7 -8 15 -8 8 0 15 -4 15
-10 0 -5 7 -10 15 -10 9 0 18 -7 21 -15 4 -8 11 -12 18 -8 6 3 8 3 4 -2 -5 -5
3 -23 17 -40 13 -18 27 -44 31 -59 3 -14 10 -29 15 -32 5 -3 7 -10 4 -15 -4
-5 -1 -9 5 -9 6 0 8 -4 5 -10 -3 -5 -1 -10 4 -10 6 0 11 -7 11 -15 0 -14 18
-53 30 -65 3 -3 18 -25 34 -50 78 -120 190 -205 316 -238 35 -9 173 -3 188 9
1 1 6 2 11 3 5 0 13 4 17 8 4 5 16 8 26 8 10 0 18 4 18 8 0 5 16 16 35 25 19
9 35 21 35 27 0 5 3 9 8 7 19 -6 169 173 155 187 -3 3 -1 6 5 6 7 0 12 7 12
15 0 8 4 15 9 15 5 0 12 10 16 23 4 12 8 24 10 27 7 17 33 78 40 95 5 11 7 23
7 27 -1 5 3 8 9 8 5 0 8 4 5 8 -6 10 50 72 79 88 11 6 37 11 58 10 20 -1 37 2
37 5 0 3 12 4 28 2 84 -13 173 80 227 237 5 14 19 50 36 93 11 26 17 51 14 56
-2 5 2 12 11 15 9 4 14 9 11 12 -7 7 30 112 46 132 5 6 6 12 2 12 -4 0 -2 7 5
15 7 8 9 15 5 15 -4 0 -3 6 2 13 8 9 31 68 38 97 1 3 7 19 14 35 7 17 13 38
14 48 1 9 4 17 8 17 6 0 22 64 24 95 0 6 3 15 6 20 3 6 5 22 4 38 -1 15 1 27
4 27 10 0 7 225 -4 232 -7 5 -7 8 0 8 6 0 10 45 10 115 0 70 -4 115 -10 115
-7 0 -6 3 0 8 14 9 13 304 0 314 -7 5 -6 8 0 8 11 0 13 106 4 126 -3 5 -5 26
-4 47 0 20 -3 37 -8 37 -4 0 -5 5 -2 10 3 6 0 10 -7 10 -9 0 -9 3 2 10 8 5 10
10 4 10 -6 0 -11 6 -11 13 0 21 -46 110 -70 135 -13 13 -23 28 -23 34 0 6 -3
9 -6 5 -3 -3 -27 16 -53 41 -91 90 -194 182 -203 182 -5 0 -6 5 -3 10 3 6 1
10 -5 10 -6 0 -28 18 -49 40 -21 22 -40 40 -43 40 -4 0 -88 77 -220 203 -22
20 -44 37 -49 37 -6 0 -7 5 -4 10 3 6 2 10 -4 10 -5 0 -37 27 -72 60 -34 33
-63 60 -65 60 -1 0 -30 27 -65 60 -34 33 -67 60 -71 60 -5 0 -6 5 -3 10 3 6 1
10 -5 10 -6 0 -23 12 -39 28 -97 94 -161 152 -170 152 -6 0 -11 4 -11 9 0 13
-90 53 -107 47 -8 -3 -11 -1 -8 4 5 7 -208 10 -660 8 -367 -2 -667 -4 -668 -5z
m282 -278 c31 0 66 3 79 7 12 4 22 4 22 0 0 -4 18 -7 40 -7 22 -1 40 3 40 8 0
4 8 4 17 -2 10 -5 26 -5 40 0 13 5 23 5 23 1 0 -8 68 -8 76 1 4 4 14 2 24 -3
10 -5 20 -6 24 -3 10 11 56 9 56 -2 0 -5 5 -3 10 5 7 11 10 11 10 2 0 -10 5
-10 20 -2 14 8 20 8 20 0 0 -8 6 -8 20 0 14 8 20 8 20 0 0 -8 6 -8 20 0 11 6
20 7 20 2 0 -10 34 -8 63 3 10 4 17 3 17 -5 0 -6 5 -8 10 -5 15 10 110 12 110
3 0 -4 10 -4 23 0 26 9 69 8 85 -2 6 -3 13 -3 16 2 6 10 66 8 117 -3 33 -7 91
-41 97 -57 2 -4 10 -8 18 -8 9 0 13 -4 9 -9 -3 -6 2 -14 12 -20 10 -5 47 -37
83 -70 35 -34 68 -61 72 -61 5 0 8 -7 8 -15 0 -8 4 -15 9 -15 10 0 64 -48 173
-152 33 -32 62 -58 64 -58 3 0 24 -19 48 -42 105 -103 167 -158 177 -158 5 0
8 -4 5 -8 -3 -5 6 -15 19 -22 13 -7 22 -17 19 -22 -3 -4 0 -8 6 -8 6 0 29 -18
50 -39 21 -21 41 -36 44 -33 3 3 6 -2 6 -11 0 -10 5 -17 10 -17 6 0 33 -22 61
-50 28 -27 55 -50 60 -50 5 0 9 -6 9 -14 0 -14 28 -31 45 -27 5 2 7 0 3 -4 -4
-4 10 -23 30 -44 87 -85 89 -103 85 -586 -2 -343 -6 -460 -13 -460 -1 0 -3
-11 -6 -25 -2 -14 -11 -42 -19 -62 -8 -21 -13 -38 -10 -38 3 0 -1 -13 -9 -29
-9 -16 -12 -31 -9 -35 4 -3 1 -6 -5 -6 -7 0 -12 -6 -12 -14 0 -8 -5 -27 -11
-43 -6 -15 -10 -30 -11 -33 0 -3 -4 -11 -10 -17 -6 -7 -7 -13 -3 -13 5 0 0 -9
-9 -19 -10 -11 -15 -25 -11 -30 3 -6 1 -11 -4 -11 -6 0 -10 -3 -10 -7 3 -16
-14 -74 -22 -79 -5 -3 -7 -10 -4 -15 4 -5 1 -9 -5 -9 -6 0 -8 -4 -5 -10 3 -5
2 -10 -2 -10 -5 0 -10 -12 -11 -27 -1 -16 -7 -29 -12 -31 -6 -2 -10 -12 -10
-22 0 -10 -18 -37 -40 -60 -22 -23 -40 -39 -40 -37 0 3 -13 2 -30 -3 -18 -5
-32 -5 -36 1 -3 5 -9 7 -13 5 -15 -10 -64 84 -68 131 -6 70 -10 108 -13 108
-1 0 -2 18 -3 40 -1 22 -5 42 -8 45 -4 3 -10 21 -13 41 -3 20 -10 47 -15 60
-5 13 -9 27 -10 32 0 4 -7 22 -15 40 -7 19 -17 43 -20 55 -4 12 -12 22 -18 22
-6 0 -8 3 -5 6 8 8 -29 79 -55 108 -10 11 -18 25 -18 32 0 7 -3 14 -7 16 -5 2
-25 22 -45 45 -20 23 -39 39 -42 35 -3 -3 -6 2 -6 11 0 10 -7 17 -15 17 -9 0
-18 7 -21 15 -4 8 -11 15 -16 15 -5 0 -23 9 -39 21 -16 11 -29 17 -29 14 0 -4
-11 0 -25 9 -14 9 -25 14 -25 10 0 -4 -6 -2 -12 3 -7 6 -32 10 -55 9 -24 -1
-43 1 -43 5 0 7 -31 5 -45 -3 -6 -3 -20 -4 -32 -3 -13 1 -23 -3 -23 -8 0 -6
-3 -8 -6 -4 -4 3 -23 -2 -44 -13 -21 -11 -40 -16 -44 -13 -3 4 -6 0 -6 -7 0
-7 -2 -11 -5 -8 -9 9 -155 -121 -155 -137 0 -4 -10 -17 -23 -29 -12 -11 -24
-25 -26 -31 -11 -31 -25 -55 -33 -55 -4 0 -8 -5 -8 -11 0 -6 -11 -33 -24 -59
-13 -27 -22 -51 -19 -54 4 -3 2 -6 -3 -6 -5 0 -10 -10 -11 -22 -1 -11 -6 -24
-10 -27 -5 -3 -9 -13 -9 -21 -2 -35 -17 -80 -27 -80 -7 0 -7 -4 1 -12 7 -7 8
-16 2 -22 -8 -10 -13 -39 -25 -131 -2 -16 -6 -39 -8 -50 -3 -11 -7 -27 -9 -35
-1 -8 -7 -18 -11 -21 -5 -3 -9 -12 -10 -20 -3 -14 -47 -65 -47 -53 0 4 -6 1
-13 -5 -8 -6 -17 -8 -20 -4 -4 3 -7 2 -7 -3 0 -5 -161 -9 -394 -8 -325 1 -397
3 -408 15 -26 28 -51 92 -49 127 2 30 2 39 -5 77 -3 22 -13 52 -20 68 -8 15
-11 27 -7 27 4 0 -2 7 -13 15 -10 8 -15 15 -10 15 17 0 -57 60 -75 60 -10 0
-20 4 -23 9 -6 9 -61 5 -78 -5 -7 -4 -8 -2 -4 4 5 9 0 9 -18 2 -14 -5 -26 -6
-26 -1 0 9 -55 5 -71 -4 -5 -4 -9 -1 -9 5 0 8 -6 8 -20 0 -11 -6 -20 -7 -20
-2 0 10 -55 6 -72 -4 -7 -5 -8 -2 -3 5 6 10 3 11 -14 2 -11 -7 -21 -8 -21 -3
0 4 -9 8 -20 8 -11 0 -20 -5 -20 -10 0 -6 -4 -6 -11 1 -17 17 -159 -25 -159
-47 0 -6 -4 -9 -8 -6 -5 3 -16 -3 -25 -12 -9 -9 -30 -30 -47 -47 -16 -16 -30
-33 -30 -37 0 -11 -74 -84 -98 -97 -12 -7 -26 -9 -31 -6 -5 3 -11 1 -13 -5 -6
-18 -66 -14 -119 8 -29 12 -99 77 -99 92 0 5 -5 10 -12 10 -6 0 -8 3 -5 6 4 4
-3 20 -14 36 -12 16 -18 32 -15 35 3 3 2 11 -3 17 -33 42 -44 264 -16 329 4 9
5 23 2 31 -3 8 -1 16 4 18 6 2 11 10 13 18 13 74 107 181 175 200 43 11 91 10
91 -3 0 -4 4 -6 9 -3 11 7 91 -51 91 -66 0 -6 3 -8 7 -5 8 8 48 -54 44 -68 -1
-5 1 -7 4 -3 4 4 23 -8 41 -27 19 -19 41 -35 49 -35 9 0 18 -6 21 -14 5 -13
58 -33 77 -28 4 1 7 -2 7 -6 0 -4 211 -8 469 -8 343 0 474 -4 484 -12 8 -7 17
-9 20 -6 3 4 13 -1 22 -10 9 -9 21 -14 26 -11 5 4 9 1 9 -5 0 -6 8 -14 17 -17
22 -9 67 -54 112 -113 51 -66 95 -95 146 -95 17 0 32 -3 35 -6 9 -12 95 34
130 71 34 34 79 110 83 141 2 8 6 20 10 27 5 6 5 17 2 22 -3 6 -2 10 2 10 10
0 11 11 17 130 2 47 1 89 -2 95 -3 5 -7 21 -8 35 -4 46 -13 74 -45 138 -28 54
-89 134 -89 115 0 -3 -8 1 -17 9 -25 22 -91 39 -99 26 -4 -7 -9 -6 -13 1 -12
18 -90 -26 -137 -77 -24 -25 -42 -48 -40 -49 5 -6 -62 -73 -73 -73 -5 0 -12
-7 -15 -16 -3 -8 -10 -12 -16 -9 -5 3 -10 1 -10 -4 0 -6 -9 -11 -19 -11 -11 0
-21 -5 -23 -12 -7 -19 -202 -24 -236 -7 -25 13 -77 65 -77 78 -1 3 -6 16 -13
29 -7 12 -9 22 -5 22 4 0 3 4 -4 8 -6 4 -14 27 -18 52 -6 42 -6 52 -4 83 2 30
-13 112 -22 118 -6 3 -9 10 -7 16 5 15 -54 103 -69 103 -7 0 -13 5 -13 11 0 5
-4 7 -10 4 -5 -3 -10 -2 -10 3 0 5 -18 8 -40 7 -22 -1 -40 2 -40 5 0 4 -7 7
-15 7 -8 0 -12 -4 -10 -8 3 -4 -13 -5 -35 -3 -22 2 -40 -1 -40 -6 0 -5 -7 -7
-15 -4 -8 4 -15 1 -15 -6 0 -6 -4 -9 -9 -6 -13 8 -67 -21 -106 -58 -19 -18
-37 -31 -40 -28 -3 3 -5 1 -5 -4 0 -6 -8 -20 -17 -33 -25 -32 -103 -112 -103
-105 0 3 -6 2 -12 -3 -7 -4 -16 -8 -20 -9 -5 -1 -9 -3 -10 -4 -18 -15 -128 3
-128 21 0 6 -4 8 -9 4 -22 -13 -123 125 -133 180 -1 11 -6 22 -9 25 -19 14
-30 198 -17 275 24 141 106 267 193 296 52 17 57 17 74 5 11 -8 13 -8 8 1 -12
20 66 -16 98 -45 17 -15 46 -48 65 -73 19 -26 38 -45 43 -42 4 2 7 -4 7 -13 0
-10 3 -14 7 -11 3 4 12 -1 19 -11 6 -9 34 -29 60 -42 49 -25 50 -25 374 -28
179 -1 378 -3 443 -5 64 -1 117 1 117 5 0 4 6 5 13 3 6 -2 24 -6 39 -9 55 -9
115 -45 176 -104 34 -34 62 -66 62 -72 0 -5 4 -10 9 -10 5 0 12 -9 16 -20 3
-11 9 -19 13 -18 14 3 42 -14 36 -23 -4 -8 25 -14 49 -10 4 0 7 -3 7 -8 0 -11
41 -8 60 4 9 6 11 4 5 -5 -4 -7 -4 -11 1 -8 53 24 74 38 105 68 38 37 89 120
89 145 0 8 5 15 11 15 5 0 8 4 4 9 -3 5 1 28 9 50 7 23 9 41 4 41 -5 0 -6 6
-1 13 12 19 11 107 -1 107 -8 0 -7 3 0 8 12 7 15 42 4 42 -3 0 -6 8 -6 18 -3
78 -47 181 -103 239 -45 48 -71 62 -124 67 -26 3 -53 8 -59 12 -6 4 -8 3 -5
-3 4 -6 -5 -14 -19 -17 -27 -7 -94 -56 -94 -68 0 -5 -8 -17 -17 -27 -10 -11
-36 -40 -58 -65 -21 -25 -45 -46 -52 -46 -7 0 -13 -3 -13 -8 0 -8 -46 -30 -81
-38 -13 -3 -107 -7 -209 -8 -193 -1 -235 5 -272 44 -9 10 -21 20 -26 21 -18 8
-72 99 -84 143 -7 25 -15 46 -19 46 -5 0 -6 9 -4 20 2 11 0 22 -6 25 -5 4 -9
11 -9 16 0 6 5 7 11 3 8 -4 8 -1 1 12 -5 11 -8 27 -7 37 2 9 -1 17 -7 17 -6 0
-7 8 -3 18 4 9 9 35 11 57 8 79 29 145 45 145 5 0 9 5 9 10 0 16 31 47 63 63
16 8 50 14 78 12 27 -1 49 2 49 7 0 5 5 6 12 2 6 -4 37 -8 67 -9z m695 -706
c21 3 38 0 33 -5 -3 -4 1 -13 9 -21 8 -8 12 -19 9 -24 -4 -5 -1 -9 5 -9 7 0
10 -6 7 -14 -3 -7 0 -19 6 -25 8 -8 7 -11 -3 -11 -11 0 -11 -3 -2 -12 8 -8 8
-19 -3 -45 -8 -18 -11 -33 -8 -33 4 0 -6 -13 -22 -30 -28 -29 -44 -32 -87 -15
-10 4 -18 13 -18 21 0 8 -5 14 -11 14 -5 0 -7 5 -4 10 3 6 3 10 -2 10 -13 0
-13 93 0 109 10 12 9 13 -1 7 -7 -4 -3 12 10 37 13 25 25 43 28 42 3 -2 12 0
20 5 9 5 17 5 21 -1 3 -6 9 -10 13 -10z m-278 -1094 c14 -13 37 -55 41 -75 3
-14 4 -74 1 -109 -3 -35 -98 -101 -98 -68 0 6 -3 8 -6 4 -8 -7 -34 17 -34 31
0 6 -5 12 -11 14 -11 4 -19 94 -11 134 11 57 85 100 118 69z m-2521 -275 c0
-1 8 -3 17 -5 28 -5 78 -29 78 -37 0 -5 7 -8 15 -8 8 0 15 -4 15 -10 0 -5 7
-10 16 -10 8 0 12 -4 9 -10 -3 -5 2 -10 11 -10 10 0 15 -2 12 -5 -3 -3 9 -21
26 -40 25 -27 87 -131 92 -155 0 -3 4 -13 8 -22 4 -9 9 -22 10 -30 3 -14 11
-37 27 -76 7 -17 6 -21 -2 -16 -8 5 -9 3 -5 -5 10 -16 19 -67 20 -113 0 -21 3
-38 6 -38 10 0 5 -55 -5 -62 -6 -5 -6 -11 2 -16 8 -5 9 -13 3 -22 -5 -8 -5
-21 1 -31 6 -11 5 -20 0 -24 -6 -3 -10 -13 -10 -23 0 -9 -2 -33 -6 -52 -4 -19
-8 -44 -10 -55 -2 -11 -4 -21 -4 -22 -1 -2 -1 -5 -1 -8 0 -3 -6 -18 -14 -34
-9 -16 -12 -32 -8 -35 3 -4 2 -10 -4 -14 -10 -7 -42 -70 -43 -85 0 -4 -6 -14
-13 -21 -7 -8 -23 -27 -35 -43 -41 -54 -78 -88 -118 -108 -22 -11 -43 -24 -46
-29 -4 -5 -11 -6 -17 -2 -6 3 -13 2 -16 -2 -6 -11 -99 -9 -141 3 -85 23 -200
136 -240 235 -4 8 -11 23 -16 32 -5 10 -9 25 -9 33 0 8 -5 15 -12 15 -6 0 -9
3 -5 6 3 3 -1 24 -9 46 -7 21 -13 42 -13 46 1 4 0 10 -1 15 -1 4 -4 16 -5 27
-1 11 -4 21 -5 23 -1 1 -4 25 -6 52 -2 28 -6 55 -9 62 -2 7 0 15 6 18 5 4 6
11 2 18 -7 11 -5 101 3 141 2 11 7 35 10 51 3 17 7 35 8 40 2 6 6 24 10 40 4
17 12 39 17 50 19 43 32 80 31 88 -1 4 2 7 7 7 5 0 13 10 17 22 3 12 10 26 15
32 5 6 23 28 39 50 17 21 30 36 30 32 0 -3 14 8 30 26 17 17 30 27 30 22 0 -5
4 -4 8 2 9 15 82 45 92 39 5 -3 11 -2 13 3 4 6 92 8 92 2z m3365 0 c0 -3 10
-6 22 -7 32 -3 78 -24 78 -36 0 -6 3 -8 6 -4 10 10 93 -68 122 -115 9 -16 20
-28 25 -28 4 0 5 -4 2 -10 -3 -5 -1 -10 5 -10 6 0 8 -4 5 -10 -3 -5 -3 -10 2
-10 4 0 18 -26 29 -57 12 -32 25 -67 29 -78 5 -11 8 -23 7 -27 -1 -3 5 -27 12
-52 8 -26 10 -43 4 -40 -6 4 -6 -2 1 -14 11 -21 22 -208 12 -217 -2 -3 -6 -24
-7 -48 -1 -23 -2 -42 -3 -42 -1 0 -4 -16 -7 -35 -2 -19 -11 -53 -20 -75 -9
-22 -16 -41 -15 -42 1 -5 -11 -38 -27 -73 -8 -19 -14 -37 -13 -39 2 -2 -4 -8
-13 -13 -9 -5 -16 -15 -16 -22 0 -16 -130 -149 -138 -142 -3 3 -11 -2 -19 -12
-8 -9 -11 -11 -8 -3 5 9 -1 8 -19 -4 -14 -10 -26 -14 -26 -11 0 4 -6 4 -12 -1
-16 -10 -138 -11 -138 0 0 4 -9 7 -20 7 -11 0 -20 5 -20 10 0 6 -9 10 -21 10
-11 0 -17 5 -14 10 3 6 -3 10 -15 10 -12 0 -19 4 -15 9 3 5 -4 12 -15 16 -11
3 -20 13 -20 21 0 8 -4 13 -8 10 -5 -3 -15 6 -22 19 -7 14 -17 25 -22 25 -5 0
-6 5 -3 10 3 6 2 10 -2 10 -7 0 -65 101 -69 120 0 3 -4 13 -8 22 -4 9 -9 23
-10 32 -1 8 -5 19 -9 22 -4 4 -7 17 -7 29 0 11 -5 26 -12 33 -9 9 -9 12 0 12
10 0 10 5 2 20 -6 12 -12 47 -14 79 -2 32 -7 65 -11 71 -5 7 -4 11 1 7 5 -3 9
29 8 74 0 43 2 79 5 79 3 0 7 15 8 33 2 29 8 64 13 77 1 3 2 8 1 13 0 4 3 7 8
7 4 0 7 11 6 25 -2 14 1 25 6 25 5 0 9 6 9 14 0 50 143 256 178 256 7 0 12 5
12 11 0 11 55 37 89 42 11 2 22 5 25 8 7 6 86 6 86 -1z"/>
<path d="M2350 3851 c0 -7 -4 -10 -8 -7 -16 10 -53 -32 -66 -74 -15 -51 -12
-89 11 -142 18 -40 44 -55 83 -46 61 13 90 163 43 226 -24 33 -63 59 -63 43z"/>
<path d="M2030 2748 c0 -5 -4 -7 -9 -3 -12 7 -52 -48 -54 -75 -1 -11 -4 -20
-7 -20 -3 0 -6 -9 -6 -20 0 -11 3 -20 6 -20 4 0 6 -10 5 -22 -1 -13 1 -27 6
-33 4 -5 8 -14 9 -20 4 -20 16 -33 47 -48 31 -17 31 -16 62 19 17 19 32 39 32
44 2 10 5 25 9 38 3 9 0 50 -5 77 -2 11 -4 23 -4 28 -3 28 -91 82 -91 55z"/>
</g>
</svg>
